Patient4_TMGait_0pt7_01_right_48_GRF.mot
version=1
nRows=58
nColumns=19
inDegrees=no
endheader
time	F1x	F1y	F1z	M1x	M1y	M1z	F2x	F2y	F2z	M2x	M2y	M2z	EC1x	EC1y	EC1z	EC2x	EC2y	EC2z
55.18	-11.6062	803.4359	118.996	-282.2439	-122.0972	892.1729	-12.707	20.521	18.8414	-0.34636	-10.8126	37.6023	-0.0592	0.0182	-0.0073	-0.0462	0.0165	0.9585
55.1919	-8.6873	791.9604	108.7845	-277.8862	-112.1652	873.942	-8.8969	15.486	12.7442	0.32343	-7.2147	27.4146	-0.0592	0.0182	-0.0073	-0.0462	0.0165	0.9585
55.2037	-5.8756	777.8138	99.6844	-272.5883	-102.9901	852.8052	-5.653	11.209	7.6392	0.86443	-4.2068	18.8032	-0.0592	0.0182	-0.0073	-0.0462	0.0165	0.9585
55.2156	-3.2989	761.7526	92.0194	-266.6606	-94.8962	829.7797	-3.1349	7.9432	3.7999	1.2635	-1.96	12.2415	-0.0592	0.0182	-0.0073	-0.0462	0.0165	0.9585
55.2274	-1.0246	744.7675	85.9135	-260.4787	-88.06	806.0014	-1.4115	5.7423	1.1687	1.5447	-0.41771	7.8034	-0.0592	0.0182	-0.0073	-0.0462	0.0165	0.9585
55.2393	1.0077	727.8787	81.1159	-254.4246	-82.3109	782.5421	-0.33154	4.4106	-0.42878	1.72	0.50659	5.0985	-0.0592	0.0182	-0.0073	-0.0462	0.0165	0.9585
55.2511	2.8893	712.0078	77.4971	-248.8203	-77.5842	760.3443	0.1863	3.7323	-1.255	1.8102	0.98921	3.733	-0.0592	0.0182	-0.0073	-0.0462	0.0165	0.9585
55.263	4.7101	697.882	74.7842	-243.9206	-73.6742	740.0775	0.35279	3.4011	-1.5492	1.81	1.163	3.1403	-0.0592	0.0182	-0.0073	-0.0462	0.0165	0.9585
55.2749	6.5679	686.0235	72.8341	-239.9025	-70.4708	722.2034	0.23639	3.1523	-1.5172	1.7048	1.1695	2.8797	-0.0592	0.0182	-0.0073	-0.0462	0.0165	0.9585
55.2867	8.6104	676.8741	71.3939	-236.9193	-67.7294	707.0919	0.012335	2.6766	-1.3134	1.4513	1.0816	2.443	-0.0592	0.0182	-0.0073	-0.0462	0.0165	0.9585
55.2986	10.9464	670.7878	70.2645	-235.0942	-65.2353	695.0117	-0.28173	1.7576	-1.0373	1.0126	0.95893	1.5119	-0.0592	0.0182	-0.0073	-0.0462	0.0165	0.9585
55.3104	13.7104	668.095	69.2328	-234.5362	-62.7419	686.2234	-0.52953	0.16018	-0.76377	0.337	0.82246	-0.28302	-0.0592	0.0182	-0.0073	-0.0462	0.0165	0.9585
55.3223	16.9805	668.9809	68.1854	-235.293	-60.1017	680.875	-0.70447	-2.1963	-0.52425	-0.5942	0.67651	-3.052	-0.0592	0.0182	-0.0073	-0.0462	0.0165	0.9585
55.3341	20.7582	673.3749	67.1163	-237.3077	-57.2927	678.8836	-0.69278	-5.318	-0.33128	-1.7751	0.48972	-6.832	-0.0592	0.0182	-0.0073	-0.0462	0.0165	0.9585
55.346	24.9825	680.8249	66.0848	-240.3723	-54.3715	679.839	-0.4404	-8.9329	-0.16796	-3.1118	0.21937	-11.2715	-0.0592	0.0182	-0.0073	-0.0462	0.0165	0.9585
55.3579	29.548	690.44	65.221	-244.1171	-51.4831	682.9331	0.1953	-12.4879	-0.022488	-4.405	-0.19158	-15.6832	-0.0592	0.0182	-0.0073	-0.0462	0.0165	0.9585
55.3697	34.2972	700.9876	64.6332	-248.0528	-48.768	687.0363	1.3065	-14.9236	0.12741	-5.2788	-0.79219	-18.7315	-0.0592	0.0182	-0.0073	-0.0462	0.0165	0.9585
55.3816	39.116	711.0995	64.41	-251.6533	-46.3467	690.8983	3.0089	-14.6248	0.28392	-5.1522	-1.6106	-18.4251	-0.0592	0.0182	-0.0073	-0.0462	0.0165	0.9585
55.3934	43.9024	719.5188	64.5676	-254.4519	-44.2743	693.3813	5.3184	-9.2794	0.44341	-3.1963	-2.6329	-11.8889	-0.0592	0.0182	-0.0073	-0.0462	0.0165	0.9585
55.4053	48.6235	725.208	65.0439	-256.0866	-42.5207	693.5331	8.1591	4.0413	0.57768	1.6447	-3.7748	4.5045	-0.0592	0.0182	-0.0073	-0.0462	0.0165	0.9585
55.4171	53.2871	727.2437	65.685	-256.2604	-40.9563	690.5272	11.2119	28.707	0.63515	10.5841	-4.8347	34.9338	-0.0592	0.0182	-0.0073	-0.0462	0.0165	0.9585
55.429	57.922	724.5242	66.2539	-254.6504	-39.3692	683.3471	13.859	67.9877	0.53208	24.7985	-5.456	83.4496	-0.0592	0.0182	-0.0073	-0.0462	0.0165	0.9585
55.4409	62.4643	715.6219	66.4775	-250.8337	-37.5408	670.7224	15.045	124.1334	0.15343	45.0916	-5.0891	152.8606	-0.0592	0.0182	-0.0073	-0.0462	0.0165	0.9585
55.4527	66.7177	698.8009	66.0178	-244.2851	-35.2413	651.1247	13.1935	196.9125	-0.64218	71.3662	-2.9745	242.9131	-0.0592	0.0182	-0.0073	-0.0462	0.0165	0.9585
55.4646	70.2407	672.3087	64.5259	-234.4634	-32.3186	623.0605	6.3603	281.7386	-2.0506	101.9502	1.7969	347.9796	-0.0592	0.0182	-0.0073	-0.0462	0.0165	0.9585
55.4764	72.4587	634.7672	61.6674	-220.9491	-28.6866	585.3747	-6.04	368.8727	-4.3591	133.2878	9.7321	456.0601	-0.0592	0.0182	-0.0073	-0.0462	0.0165	0.9585
55.4883	72.7403	585.7978	57.2872	-203.6385	-24.4511	537.8517	-21.0338	445.9616	-8.6822	160.8514	20.9804	551.7286	-0.0592	0.0182	-0.0073	-0.0462	0.0165	0.9585
55.5001	70.632	526.452	51.4725	-182.8866	-19.8694	481.498	-35.1291	505.7685	-15.5051	181.9715	34.6836	625.6823	-0.0592	0.0182	-0.0073	-0.0462	0.0165	0.9585
55.512	65.927	459.3073	44.5581	-159.5319	-15.3151	418.7175	-46.508	549.0093	-23.6042	196.9257	48.797	678.4645	-0.0592	0.0182	-0.0073	-0.0462	0.0165	0.9585
55.5239	58.8773	387.7985	37.073	-134.7123	-11.1672	352.5876	-54.4685	580.2426	-32.2832	207.4353	62.1319	715.6511	-0.0592	0.0182	-0.0073	-0.0462	0.0165	0.9585
55.5357	49.9652	315.9014	29.5073	-109.7581	-7.6765	286.6679	-59.3603	604.6201	-39.9904	215.4785	73.0821	743.6605	-0.0592	0.0182	-0.0073	-0.0462	0.0165	0.9585
55.5476	40.0222	247.4621	22.3153	-85.991	-4.9402	224.2782	-61.9356	625.8599	-46.3584	222.4769	81.4156	767.2529	-0.0592	0.0182	-0.0073	-0.0462	0.0165	0.9585
55.5594	29.9679	185.8058	15.8429	-64.559	-2.9146	168.3247	-62.7558	646.6144	-50.8685	229.4384	86.8469	789.7065	-0.0592	0.0182	-0.0073	-0.0462	0.0165	0.9585
55.5713	20.7069	132.9992	10.3676	-46.1979	-1.4986	120.5093	-62.2153	668.2744	-54.1921	236.8254	90.2853	812.7776	-0.0592	0.0182	-0.0073	-0.0462	0.0165	0.9585
55.5831	12.7563	89.97	6.0236	-31.2315	-0.60125	81.6195	-60.6691	690.5574	-56.8114	244.501	92.4896	836.1461	-0.0592	0.0182	-0.0073	-0.0462	0.0165	0.9585
55.595	6.4428	56.5212	2.8477	-19.5992	-0.13092	51.4079	-58.6763	712.219	-59.4655	251.954	94.497	858.4498	-0.0592	0.0182	-0.0073	-0.0462	0.0165	0.9585
55.6069	1.8109	31.8317	0.72712	-11.0139	0.029535	29.15	-56.6349	732.1953	-62.3541	258.7735	96.717	878.4573	-0.0592	0.0182	-0.0073	-0.0462	0.0165	0.9585
55.6187	-1.1207	14.6884	-0.49561	-5.0543	0.013757	13.7055	-54.9233	750.0308	-65.4457	264.7755	99.2553	895.7101	-0.0592	0.0182	-0.0073	-0.0462	0.0165	0.9585
55.6306	-2.5906	3.7651	-1.0474	-1.2553	-0.068168	3.8941	-53.6001	765.466	-68.5506	269.8748	101.9158	909.9176	-0.0592	0.0182	-0.0073	-0.0462	0.0165	0.9585
55.6424	-3.0293	-2.3192	-1.1514	0.86158	-0.17048	-1.5862	-52.7283	778.2105	-71.342	273.9711	104.3423	920.7949	-0.0592	0.0182	-0.0073	-0.0462	0.0165	0.9585
55.6543	-2.8723	-4.9437	-1.0042	1.7771	-0.27496	-3.9454	-52.1872	787.8241	-73.6908	276.9134	106.3197	927.8661	-0.0592	0.0182	-0.0073	-0.0462	0.0165	0.9585
55.6661	-2.4042	-5.3691	-0.71885	1.923	-0.3803	-4.343	-51.8771	794.0704	-75.4032	278.6084	107.6065	930.9409	-0.0592	0.0182	-0.0073	-0.0462	0.0165	0.9585
55.678	-1.862	-4.5453	-0.39995	1.6297	-0.47379	-3.6233	-51.5957	796.8478	-76.6126	279.0111	108.2705	929.9311	-0.0592	0.0182	-0.0073	-0.0462	0.0165	0.9585
55.6899	-1.335	-3.1949	-0.087444	1.1457	-0.55357	-2.4496	-51.227	796.3936	-77.2783	278.195	108.2533	925.1514	-0.0592	0.0182	-0.0073	-0.0462	0.0165	0.9585
55.7017	-0.90328	-1.7561	0.16609	0.62585	-0.60335	-1.2036	-50.6002	793.1008	-77.5635	276.2937	107.682	917.0682	-0.0592	0.0182	-0.0073	-0.0462	0.0165	0.9585
55.7136	-0.58374	-0.48363	0.36668	0.1618	-0.63884	-0.11331	-49.6614	787.6119	-77.3928	273.536	106.4886	906.4406	-0.0592	0.0182	-0.0073	-0.0462	0.0165	0.9585
55.7254	-0.36288	0.52012	0.48982	-0.20733	-0.64453	0.75456	-48.3174	780.5976	-76.8819	270.1587	104.7791	894.0239	-0.0592	0.0182	-0.0073	-0.0462	0.0165	0.9585
55.7373	-0.23376	1.2536	0.56953	-0.47571	-0.65137	1.3958	-46.5694	772.656	-76.0179	266.3817	102.5628	880.507	-0.0592	0.0182	-0.0073	-0.0462	0.0165	0.9585
55.7491	-0.16801	1.7519	0.59096	-0.65538	-0.63814	1.8353	-44.3969	764.1951	-74.9624	262.3642	100.0156	866.3261	-0.0592	0.0182	-0.0073	-0.0462	0.0165	0.9585
55.761	-0.15022	2.0838	0.59149	-0.76895	-0.63414	2.1492	-41.8483	755.6069	-73.7783	258.2695	97.2413	851.8991	-0.0592	0.0182	-0.0073	-0.0462	0.0165	0.9585
55.7729	-0.15664	2.2945	0.56224	-0.83719	-0.62099	2.3649	-38.949	747.233	-72.5766	254.2565	94.3814	837.5744	-0.0592	0.0182	-0.0073	-0.0462	0.0165	0.9585
55.7847	-0.19476	2.4213	0.52817	-0.87462	-0.61709	2.5349	-35.7499	739.4912	-71.3881	250.5155	91.4928	823.7852	-0.0592	0.0182	-0.0073	-0.0462	0.0165	0.9585
55.7966	-0.22405	2.4838	0.4826	-0.891	-0.60419	2.6533	-32.2629	732.8121	-70.2108	247.2429	88.5802	810.9392	-0.0592	0.0182	-0.0073	-0.0462	0.0165	0.9585
55.8084	-0.2883	2.4936	0.44587	-0.88773	-0.60961	2.7308	-28.5078	727.5696	-69.0285	244.6071	85.6262	799.403	-0.0592	0.0182	-0.0073	-0.0462	0.0165	0.9585
55.8203	-0.35265	2.4072	0.42568	-0.85098	-0.63277	2.6813	-24.4628	724.0116	-67.765	242.723	82.5449	789.394	-0.0592	0.0182	-0.0073	-0.0462	0.0165	0.9585
55.8321	-0.45442	2.1973	0.42754	-0.7667	-0.69128	2.4808	-20.1423	722.2035	-66.4127	241.6256	79.3243	780.9629	-0.0592	0.0182	-0.0073	-0.0462	0.0165	0.9585
55.844	-0.56163	1.7697	0.46437	-0.60399	-0.78998	1.98	-15.5383	722.0191	-64.9197	241.2695	75.9061	773.9854	-0.0592	0.0182	-0.0073	-0.0462	0.0165	0.9585
55.8559	-0.70974	1.0635	0.51852	-0.33635	-0.91817	1.1324	-10.655	723.1409	-63.3637	241.5243	72.3541	768.1839	-0.0592	0.0182	-0.0073	-0.0462	0.0165	0.9585
